HIERARCHY
ROOT Hips
{
	OFFSET -3.958830 18.904000 13.208200
	CHANNELS 6 Xposition Yposition Zposition Zrotation Yrotation Xrotation 
	JOINT LHipJoint
	{
		OFFSET 0.000000 0.000000 0.000000
		CHANNELS 3 Zrotation Yrotation Xrotation
		JOINT LeftUpLeg
		{
			OFFSET 1.800000 -1.400000 0.085000
			CHANNELS 3 Zrotation Yrotation Xrotation
			JOINT LeftLeg
			{
				OFFSET 2.215000 -6.000000 0.000000
				CHANNELS 3 Zrotation Yrotation Xrotation
				JOINT LeftFoot
				{
					OFFSET 2.500000 -6.900000 0.000000
					CHANNELS 3 Zrotation Yrotation Xrotation
					JOINT LeftToeBase
					{
						OFFSET 0.200000 -0.500000 1.950000
						CHANNELS 3 Zrotation Yrotation Xrotation
						End Site
						{
							OFFSET 0.000000 0.000000 0.000000
						}
					}
				}
			}
		}
	}
	JOINT RHipJoint
	{
		OFFSET 0.000000 0.000000 0.000000
		CHANNELS 3 Zrotation Yrotation Xrotation
		JOINT RightUpLeg
		{
			OFFSET -1.800000 -1.400000 0.085000
			CHANNELS 3 Zrotation Yrotation Xrotation
			JOINT RightLeg
			{
				OFFSET -2.215000 -6.000000 0.000000
				CHANNELS 3 Zrotation Yrotation Xrotation
				JOINT RightFoot
				{
					OFFSET -2.500000 -6.900000 0.000000
					CHANNELS 3 Zrotation Yrotation Xrotation
					JOINT RightToeBase
					{
						OFFSET -0.200000 -0.500000 1.950000
						CHANNELS 3 Zrotation Yrotation Xrotation
						End Site
						{
							OFFSET 0.000000 0.000000 0.000000
						}
					}
				}
			}
		}
	}
	JOINT LowerBack
	{
		OFFSET 0.000000 0.000000 0.000000
		CHANNELS 3 Zrotation Yrotation Xrotation
		JOINT Spine
		{
			OFFSET -0.087000 1.940000 -0.288900
			CHANNELS 3 Zrotation Yrotation Xrotation
			JOINT Spine1
			{
				OFFSET 0.000000 1.950000 0.060000
				CHANNELS 3 Zrotation Yrotation Xrotation
				JOINT Neck
				{
					OFFSET 0.000000 0.000000 0.000000
					CHANNELS 3 Zrotation Yrotation Xrotation
					JOINT Neck1
					{
						OFFSET 0.000000 1.600000 0.340000
						CHANNELS 3 Zrotation Yrotation Xrotation
						JOINT Head
						{
							OFFSET 0.000000 1.667000 -0.240000
							CHANNELS 3 Zrotation Yrotation Xrotation
							End Site
							{
								OFFSET 0.000000 0.000000 0.000000
							}
						}
					}
				}
				JOINT LeftShoulder
				{
					OFFSET 0.000000 0.000000 0.000000
					CHANNELS 3 Zrotation Yrotation Xrotation
					JOINT LeftArm
					{
						OFFSET 2.700000 1.550000 -0.730000
						CHANNELS 3 Zrotation Yrotation Xrotation
						JOINT LeftForeArm
						{
							OFFSET 5.450000 0.000000 0.000000
							CHANNELS 3 Zrotation Yrotation Xrotation
							JOINT LeftHand
							{
								OFFSET 3.450000 0.000000 0.000000
								CHANNELS 3 Zrotation Yrotation Xrotation
								JOINT LeftHandIndex1
								{
									OFFSET 0.750000 0.000000 0.000000
									CHANNELS 3 Zrotation Yrotation Xrotation
									End Site
									{
										OFFSET 0.000000 0.000000 0.000000
									}
								}
							}
						}
					}
				}
				JOINT RightShoulder
				{
					OFFSET 0.000000 0.000000 0.000000
					CHANNELS 3 Zrotation Yrotation Xrotation
					JOINT RightArm
					{
						OFFSET -2.700000 1.550000 -0.730000
						CHANNELS 3 Zrotation Yrotation Xrotation
						JOINT RightForeArm
						{
							OFFSET -5.450000 0.000000 0.000000
							CHANNELS 3 Zrotation Yrotation Xrotation
							JOINT RightHand
							{
								OFFSET -3.450000 0.000000 0.000000
								CHANNELS 3 Zrotation Yrotation Xrotation
								JOINT RightHandIndex1
								{
									OFFSET -0.750000 0.000000 0.000000
									CHANNELS 3 Zrotation Yrotation Xrotation
									End Site
									{
										OFFSET 0.000000 0.000000 0.000000
									}
								}
							}
						}
					}
				}
			}
		}
	}
}
MOTION
Frames: 10
Frame Time: 0.016667
3.219950 16.940490 -3.719860 2.300058 -10.085161 4.485138 -15.235115 13.769580 2.627694 6.156207 -2.531927 -21.711398 2.024337 4.885211 25.039811 -0.302390 4.212283 3.067569 0.140010 0.118380 -0.035440 18.228579 -10.502973 3.166943 7.773378 3.718873 -19.818931 -0.047967 -3.882978 28.075741 -0.036217 -3.732201 3.062539 0.232670 0.348480 0.048220 -3.237871 -2.797540 -7.091570 1.059905 -2.367533 11.475952 -9.645197 -0.131878 8.600150 0.777186 -6.934983 -6.667574 -15.927591 2.821083 32.302527 -1.947620 -1.533550 -0.986380 -12.361600 0.417424 -1.735599 -36.884481 -22.420375 0.991897 6.871289 -59.577001 -3.744995 -3.775646 3.162748 -0.077560 0.256280 -0.231480 0.141350 10.248466 3.816693 5.169026 37.839559 2.468934 -6.230547 20.378946 54.096227 7.785670 2.069697 -1.900530 -0.147240 0.211610 0.048980 0.023910 
3.264220 16.796930 -3.725610 1.104616 -11.422748 4.244034 -15.170741 13.733361 2.461265 8.482122 -2.145581 -22.077822 3.888223 4.561414 25.647084 -0.293900 4.223566 3.025077 0.175860 0.157640 -0.010690 18.289695 -10.493524 3.349602 7.580952 4.837134 -20.795958 3.355427 -5.525779 31.902726 -0.196954 -4.356451 2.822366 0.235220 0.297630 0.044030 -3.413662 -2.527708 -7.187277 1.989174 -2.064126 12.359319 -10.370578 0.252621 8.051140 0.857081 -7.613114 -6.868804 -17.327134 3.851223 33.080892 -1.140600 -1.501180 -2.305060 -14.380882 -0.813062 -1.596924 -37.331075 -21.120368 -0.297374 5.148811 -54.294905 -2.703308 -3.749049 3.126395 -0.033340 0.199130 -0.183160 0.140810 12.031480 5.677313 5.299189 39.932212 5.213737 -5.518288 23.898953 52.063206 8.637742 2.146374 -1.822307 -0.124710 0.208250 0.032200 0.022230 
3.311850 16.661500 -3.740880 -0.024839 -11.516723 3.828052 -15.132168 13.633770 2.362166 10.359928 -2.047473 -22.961025 5.732822 4.265176 27.001064 -0.267277 4.341546 2.947561 0.195670 0.173010 0.022860 18.337614 -10.364424 3.600076 6.059905 6.610537 -23.463323 7.628422 -8.489012 38.567690 -0.490632 -5.632598 2.363340 0.221260 0.239770 0.038660 -3.558992 -2.362759 -7.420329 2.800056 -2.207449 14.126291 -11.315490 0.218658 7.052182 1.266948 -7.811555 -7.010700 -17.904502 4.238848 34.204390 -1.182630 -1.387420 -3.367350 -17.389371 -2.492129 -1.744766 -36.996651 -20.337468 -1.418612 4.907497 -47.854822 -2.309862 -3.737043 3.045613 0.017350 0.147930 -0.133270 0.130400 14.176646 7.404968 5.672267 42.379078 6.142127 -5.743284 26.465056 50.277880 8.909615 2.211398 -1.747509 -0.109090 0.201830 0.016920 0.008590 
3.362580 16.526350 -3.768810 -1.313469 -11.709954 3.221925 -15.103889 13.378259 2.330060 12.477668 -2.105490 -24.614628 7.047539 4.478235 30.774007 -0.155284 4.848624 2.712353 0.239730 0.234060 0.052530 18.405967 -10.050218 4.004395 3.174097 9.066413 -27.384846 13.405884 -13.061095 45.845507 -0.963278 -7.465368 1.740966 0.216360 0.163730 0.031570 -3.736989 -2.192706 -7.822670 3.546284 -2.349144 17.020593 -12.076811 0.234614 5.450624 1.476131 -7.919205 -7.381787 -18.371991 5.057685 35.551753 0.091110 -1.268880 -5.258310 -20.969752 -4.879202 -1.566393 -34.984295 -18.513434 -2.870601 5.196909 -41.057702 -2.138793 -3.686484 2.996546 0.077240 0.068070 -0.053850 0.134220 17.297907 9.813026 6.217441 43.985614 6.197869 -6.788647 27.918978 49.276229 8.811291 2.279368 -1.672499 -0.069700 0.194490 -0.015970 0.011960 
3.400810 16.418100 -3.789030 -2.370702 -12.559904 2.127877 -15.077769 13.135960 2.293479 14.191037 -2.089706 -25.185940 7.502536 5.000004 34.311550 -0.048154 5.429497 2.468353 0.276040 0.271510 0.099960 18.455919 -9.735106 4.422586 -1.460824 10.855164 -30.544839 21.201751 -18.625701 49.578164 -1.451638 -9.211064 1.188558 0.208440 0.089850 0.018960 -3.875142 -2.035987 -8.211239 3.690356 -2.378874 19.890594 -12.781364 0.296901 3.610921 1.664600 -7.723538 -7.730904 -18.685282 6.394256 38.568116 0.941160 -0.580170 -6.248400 -25.440417 -7.349489 -1.246256 -31.671454 -16.427033 -3.727005 5.900619 -32.621581 -1.935269 -3.653860 2.951558 0.145400 -0.002980 0.016580 0.127620 21.350575 12.137140 6.672266 44.196654 6.144435 -7.431841 32.093821 48.419383 9.862157 2.352016 -1.625096 -0.050440 0.189870 -0.044990 -0.003310 
3.435780 16.315900 -3.781220 -3.772341 -12.877954 1.071782 -15.055686 12.806803 2.258701 16.136274 -1.950587 -25.860473 7.810670 5.786910 38.283477 0.054848 6.174937 2.166803 0.298990 0.284730 0.158110 18.526164 -9.322349 4.898440 -7.165967 12.180138 -33.762885 31.127381 -25.227969 50.925177 -1.960841 -10.870582 0.700441 0.199310 0.018230 0.007240 -4.057075 -1.867285 -8.584764 4.380182 -2.932016 22.015288 -13.690761 -0.139561 2.344924 2.040679 -7.434891 -8.161562 -18.679848 7.949018 42.274776 0.702490 0.548710 -6.909280 -28.820641 -8.968641 -0.256985 -29.927952 -13.106760 -4.330498 7.309487 -25.565343 -1.972241 -3.624725 2.924532 0.216540 -0.059330 0.075420 0.101790 23.959702 13.704683 6.493722 45.447426 7.842322 -7.423352 35.713434 48.212852 11.098760 2.404185 -1.581018 -0.048130 0.188330 -0.056880 -0.037060 
3.463420 16.215770 -3.739290 -5.157505 -12.098310 0.105135 -14.993175 12.523140 2.226185 17.129746 -1.836980 -26.783626 9.819487 5.737050 42.199063 0.181009 6.811152 1.923819 0.316590 0.297350 0.194860 18.624853 -9.027729 5.302405 -13.236660 12.227316 -35.906926 42.275484 -30.798756 48.248629 -2.289978 -11.696787 0.474155 0.187810 -0.035710 0.005710 -4.327397 -1.612005 -8.877824 5.879301 -3.816479 23.552972 -15.177875 -0.787860 1.411431 2.526626 -6.832675 -8.947132 -17.583551 9.219590 45.554152 0.956680 1.564490 -7.060870 -32.285932 -11.026147 1.438971 -27.956194 -8.981246 -4.571980 8.829966 -18.525236 -1.791507 -3.592740 2.946099 0.267550 -0.103380 0.126030 0.089490 26.359594 15.546258 6.384720 47.136880 9.679706 -7.334678 39.940017 49.180695 12.957428 2.449577 -1.573341 -0.037460 0.177080 -0.070230 -0.055170 
3.447390 16.141470 -3.727040 -6.438585 -11.724030 -0.550387 -15.003803 12.277602 2.286527 18.206885 -1.590718 -28.353898 11.857575 5.736684 46.111898 0.279093 7.541586 1.654305 0.301380 0.254720 0.233650 18.669842 -8.719107 5.583446 -17.943045 11.904273 -37.736434 52.010071 -34.367080 44.497264 -2.437227 -11.895755 0.420197 0.165760 -0.071500 -0.001520 -4.407868 -1.528114 -9.139652 6.074168 -4.115689 24.982971 -15.865651 -0.961019 1.105428 2.895488 -5.947947 -9.796933 -15.873770 9.674270 48.019389 0.573080 2.366300 -7.326650 -33.902637 -12.409055 2.660211 -26.933731 -6.105459 -3.744210 9.234687 -11.209327 -1.307731 -3.625793 2.877582 0.329900 -0.129450 0.150670 0.050840 27.252018 16.566438 6.462788 49.586869 10.243703 -7.637615 48.538926 53.496401 17.905744 2.492680 -1.579493 -0.063560 0.182840 -0.051560 -0.096660 
3.390930 16.091320 -3.687900 -7.896460 -11.861578 -1.012921 -15.042001 12.151480 2.253529 20.162612 -0.417968 -28.882490 13.207526 6.136313 48.047880 0.377325 8.023402 1.473363 0.286130 0.226140 0.238680 18.681805 -8.502838 5.775781 -21.667552 11.772259 -38.680080 60.587415 -36.531947 40.628640 -2.494623 -11.863747 0.433467 0.146590 -0.083190 0.007640 -4.394240 -1.468281 -9.293425 6.361652 -3.439910 25.063008 -15.540392 -0.374350 1.320934 3.135341 -5.175037 -10.123085 -14.124245 9.731597 49.907749 0.190220 2.576750 -6.185420 -34.347279 -12.226158 3.019989 -27.682936 -3.856051 -2.718439 8.131043 -5.611129 -0.826837 -3.674624 2.834399 0.331830 -0.127370 0.151360 0.034600 27.253031 16.316137 6.350951 51.398154 10.718403 -6.469115 63.259836 58.668582 27.557093 2.614665 -1.609083 -0.060480 0.160240 -0.042260 -0.105850 
3.341170 16.072070 -3.641440 -9.321237 -11.781245 -1.186643 -15.017409 12.121771 2.162333 21.463392 0.808058 -28.787363 14.789637 5.951147 47.958322 0.421072 8.087617 1.441672 0.286000 0.235520 0.232340 18.717879 -8.545043 5.797474 -24.616906 11.113459 -37.082227 67.319219 -36.373086 35.728268 -2.447872 -11.483916 0.541723 0.144200 -0.084210 0.010600 -4.493707 -1.240111 -9.283820 7.602553 -3.026298 23.845931 -16.296404 0.049533 2.470361 3.686020 -4.541769 -10.564862 -12.413673 10.157444 51.991536 0.117810 2.885880 -5.014600 -33.572257 -12.051014 3.388169 -28.755559 -2.014641 -1.719389 6.553385 0.213578 -0.448300 -3.729752 2.773849 0.319120 -0.120450 0.156080 0.039930 25.356288 16.061190 6.230362 53.462353 12.484814 -4.122786 78.506345 62.847381 39.045020 2.819953 -1.492191 -0.047720 0.152590 -0.047320 -0.097220 
